{
  "accessors": [
    {
      "bufferView": 0,
      "componentType": 5125,
      "count": 20982,
      "type": "SCALAR"
    },
    {
      "bufferView": 1,
      "componentType": 5126,
      "count": 4606,
      "max": [
        0.976206600666046,
        0.467115581035614,
        0.34849089384079
      ],
      "min": [
        -0.948488295078278,
        -0.398511648178101,
        -0.348503977060318
      ],
      "type": "VEC3"
    },
    {
      "bufferView": 2,
      "componentType": 5126,
      "count": 4606,
      "type": "VEC3"
    },
    {
      "bufferView": 3,
      "componentType": 5126,
      "count": 4606,
      "type": "VEC2"
    },
    {
      "bufferView": 4,
      "componentType": 5125,
      "count": 49212,
      "type": "SCALAR"
    },
    {
      "bufferView": 5,
      "componentType": 5126,
      "count": 9131,
      "max": [
        0.996303558349609,
        0.47893887758255,
        0.369892954826355
      ],
      "min": [
        -0.989830791950226,
        -0.411346346139908,
        -0.371073991060257
      ],
      "type": "VEC3"
    },
    {
      "bufferView": 6,
      "componentType": 5126,
      "count": 9131,
      "type": "VEC3"
    },
    {
      "bufferView": 7,
      "componentType": 5126,
      "count": 9131,
      "type": "VEC2"
    },
    {
      "bufferView": 8,
      "componentType": 5125,
      "count": 17718,
      "type": "SCALAR"
    },
    {
      "bufferView": 9,
      "componentType": 5126,
      "count": 4323,
      "max": [
        1.00015985965729,
        -0.103300675749779,
        0.379928380250931
      ],
      "min": [
        -0.999840140342712,
        -0.478938907384872,
        -0.380222052335739
      ],
      "type": "VEC3"
    },
    {
      "bufferView": 10,
      "componentType": 5126,
      "count": 4323,
      "type": "VEC3"
    },
    {
      "bufferView": 11,
      "componentType": 5126,
      "count": 4323,
      "type": "VEC2"
    }
  ],
  "asset": {
    "generator": "Substance Painter 2019.2.3",
    "version": "2.0"
  },
  "bufferViews": [
    {
      "buffer": 0,
      "byteLength": 83928,
      "target": 34963
    },
    {
      "buffer": 0,
      "byteLength": 55272,
      "byteOffset": 83928,
      "target": 34962
    },
    {
      "buffer": 0,
      "byteLength": 55272,
      "byteOffset": 139200,
      "target": 34962
    },
    {
      "buffer": 0,
      "byteLength": 36848,
      "byteOffset": 194472,
      "target": 34962
    },
    {
      "buffer": 0,
      "byteLength": 196848,
      "byteOffset": 231320,
      "target": 34963
    },
    {
      "buffer": 0,
      "byteLength": 109572,
      "byteOffset": 428168,
      "target": 34962
    },
    {
      "buffer": 0,
      "byteLength": 109572,
      "byteOffset": 537740,
      "target": 34962
    },
    {
      "buffer": 0,
      "byteLength": 73048,
      "byteOffset": 647312,
      "target": 34962
    },
    {
      "buffer": 0,
      "byteLength": 70872,
      "byteOffset": 720360,
      "target": 34963
    },
    {
      "buffer": 0,
      "byteLength": 51876,
      "byteOffset": 791232,
      "target": 34962
    },
    {
      "buffer": 0,
      "byteLength": 51876,
      "byteOffset": 843108,
      "target": 34962
    },
    {
      "buffer": 0,
      "byteLength": 34584,
      "byteOffset": 894984,
      "target": 34962
    }
  ],
  "buffers": [
    {
      "byteLength": 929568,
      "uri": "Sneaker-test-texturing.bin"
    }
  ],
  "images": [
    {
      "uri": "INNER_baseColor.png"
    },
    {
      "uri": "INNER_occlusionRoughnessMetallic.png"
    },
    {
      "uri": "INNER_normal.png"
    },
    {
      "uri": "SOLE_baseColor.png"
    },
    {
      "uri": "SOLE_occlusionRoughnessMetallic.png"
    },
    {
      "uri": "SOLE_normal.png"
    },
    {
      "uri": "UPPER_baseColor.png"
    },
    {
      "uri": "UPPER_occlusionRoughnessMetallic.png"
    },
    {
      "uri": "UPPER_normal.png"
    }
  ],
  "materials": [
    {
      "alphaMode": "OPAQUE",
      "name": "INNER",
      "normalTexture": {
        "index": 2
      },
      "occlusionTexture": {
        "index": 1
      },
      "pbrMetallicRoughness": {
        "baseColorTexture": {
          "index": 0
        },
        "metallicRoughnessTexture": {
          "index": 1
        }
      }
    },
    {
      "alphaMode": "OPAQUE",
      "name": "SOLE",
      "normalTexture": {
        "index": 5
      },
      "occlusionTexture": {
        "index": 4
      },
      "pbrMetallicRoughness": {
        "baseColorTexture": {
          "index": 3
        },
        "metallicRoughnessTexture": {
          "index": 4
        }
      }
    },
    {
      "alphaMode": "OPAQUE",
      "name": "UPPER",
      "normalTexture": {
        "index": 8
      },
      "occlusionTexture": {
        "index": 7
      },
      "pbrMetallicRoughness": {
        "baseColorTexture": {
          "index": 6
        },
        "metallicRoughnessTexture": {
          "index": 7
        }
      }
    }
  ],
  "meshes": [
    {
      "name": "Inner",
      "primitives": [
        {
          "attributes": {
            "NORMAL": 2,
            "POSITION": 1,
            "TEXCOORD_0": 3
          },
          "indices": 0,
          "material": 0,
          "mode": 4
        }
      ]
    },
    {
      "name": "Upper",
      "primitives": [
        {
          "attributes": {
            "NORMAL": 6,
            "POSITION": 5,
            "TEXCOORD_0": 7
          },
          "indices": 4,
          "material": 2,
          "mode": 4
        }
      ]
    },
    {
      "name": "Sole",
      "primitives": [
        {
          "attributes": {
            "NORMAL": 10,
            "POSITION": 9,
            "TEXCOORD_0": 11
          },
          "indices": 8,
          "material": 1,
          "mode": 4
        }
      ]
    }
  ],
  "nodes": [
    {
      "children": [
        1,
        3,
        5
      ],
      "name": "root",
      "scale": [
        0.153256505727768,
        0.153256505727768,
        0.153256505727768
      ],
      "translation": [
        -1.00210309028625e-06,
        -1.84997916221619e-05,
        2.34991312026978e-05
      ]
    },
    {
      "children": [
        2
      ],
      "name": "Inner"
    },
    {
      "mesh": 0,
      "name": "Inner"
    },
    {
      "children": [
        4
      ],
      "name": "Upper"
    },
    {
      "mesh": 1,
      "name": "Upper"
    },
    {
      "children": [
        6
      ],
      "name": "Sole"
    },
    {
      "mesh": 2,
      "name": "Sole"
    }
  ],
  "samplers": [
    {
      "magFilter": 9729,
      "minFilter": 9985,
      "wrapS": 10497,
      "wrapT": 10497
    }
  ],
  "scene": 0,
  "scenes": [
    {
      "name": "Scene",
      "nodes": [
        0
      ]
    }
  ],
  "textures": [
    {
      "sampler": 0,
      "source": 0
    },
    {
      "sampler": 0,
      "source": 1
    },
    {
      "sampler": 0,
      "source": 2
    },
    {
      "sampler": 0,
      "source": 3
    },
    {
      "sampler": 0,
      "source": 4
    },
    {
      "sampler": 0,
      "source": 5
    },
    {
      "sampler": 0,
      "source": 6
    },
    {
      "sampler": 0,
      "source": 7
    },
    {
      "sampler": 0,
      "source": 8
    }
  ]
}